<?xml version="1.0" encoding="UTF-8" standalone="no"?>
<!DOCTYPE svg PUBLIC "-//W3C//DTD SVG 1.1//EN" "http://www.w3.org/Graphics/SVG/1.1/DTD/svg11.dtd">
<svg version="1.1" xmlns="http://www.w3.org/2000/svg" xmlns:xlink="http://www.w3.org/1999/xlink" preserveAspectRatio="xMidYMid meet" viewBox="0 0 640 640" width="580" height="580"><defs><path d="M258.02 153.64C258.02 131.62 267.97 92.59 303.5 92.59C340.25 92.59 348.97 131.62 348.97 153.64C348.97 175.66 328.61 172.33 303.5 172.33C278.38 172.33 258.02 175.66 258.02 153.64Z" id="b1IVPRfoZz"></path><path d="M258.02 153.64C258.02 131.62 267.97 92.59 303.5 92.59C340.25 92.59 348.97 131.62 348.97 153.64C348.97 175.66 328.61 172.33 303.5 172.33C278.38 172.33 258.02 175.66 258.02 153.64Z" id="c5UsPhagBx"></path><path d="M182.92 131.18C183.07 134.15 183.84 148.97 185.21 175.64C187.07 174.27 201.98 163.3 203.84 161.93C200.82 137.86 199.15 124.48 198.81 121.81C200.3 115.01 196.01 108.3 189.21 106.8C183.53 105.55 177.73 108.36 175.18 113.6C172.11 119.8 174.66 127.31 180.86 130.38C181.52 130.71 182.21 130.98 182.92 131.18Z" id="a4kYu7NbO3"></path><path d="M182.92 131.18C183.07 134.15 183.84 148.97 185.21 175.64C187.07 174.27 201.98 163.3 203.84 161.93C200.82 137.86 199.15 124.48 198.81 121.81C200.3 115.01 196.01 108.3 189.21 106.8C183.53 105.55 177.73 108.36 175.18 113.6C172.11 119.8 174.66 127.31 180.86 130.38C181.52 130.71 182.21 130.98 182.92 131.18Z" id="c3LABbGd09"></path><path d="M373.98 346.46C374.2 343.5 375.3 328.7 377.28 302.06C375.26 303.19 359.09 312.2 357.07 313.33C357.05 337.59 357.04 351.07 357.03 353.77C354.7 360.32 358.12 367.52 364.68 369.86C370.16 371.81 376.27 369.75 379.45 364.88C383.27 359.11 381.69 351.33 375.92 347.51C375.3 347.11 374.65 346.75 373.98 346.46Z" id="d8vjj6Xnn"></path><path d="M373.98 346.46C374.2 343.5 375.3 328.7 377.28 302.06C375.26 303.19 359.09 312.2 357.07 313.33C357.05 337.59 357.04 351.07 357.03 353.77C354.7 360.32 358.12 367.52 364.68 369.86C370.16 371.81 376.27 369.75 379.45 364.88C383.27 359.11 381.69 351.33 375.92 347.51C375.3 347.11 374.65 346.75 373.98 346.46Z" id="b1o0zUf8o9"></path><path d="M308.93 519.69L286.39 519.69L286.39 578.61L286.39 578.61L301.67 578.61L308.93 519.69Z" id="a2tXmAEPPl"></path><path d="M308.93 519.69L286.39 519.69L286.39 578.61L286.39 578.61L301.67 578.61L308.93 519.69Z" id="b1mGt6tAo"></path><path d="M312.58 573.62C312.58 573.62 312.58 573.62 312.58 573.62C323.17 573.62 331.75 582.2 331.75 592.79C331.75 592.79 331.75 592.79 331.75 592.79C331.75 592.83 331.75 593.04 331.75 593.41C328.47 593.41 312.05 593.41 282.5 593.41L282.5 573.62C300.55 573.62 310.57 573.62 312.58 573.62Z" id="c5ASP1gPCQ"></path><path d="M312.58 573.62C312.58 573.62 312.58 573.62 312.58 573.62C323.17 573.62 331.75 582.2 331.75 592.79C331.75 592.79 331.75 592.79 331.75 592.79C331.75 592.83 331.75 593.04 331.75 593.41C328.47 593.41 312.05 593.41 282.5 593.41L282.5 573.62C300.55 573.62 310.57 573.62 312.58 573.62Z" id="b1ncSamuCf"></path><path d="M406.12 519.69L383.57 519.69L383.57 578.61L383.57 578.61L398.85 578.61L406.12 519.69Z" id="b1dXuzJlQz"></path><path d="M406.12 519.69L383.57 519.69L383.57 578.61L383.57 578.61L398.85 578.61L406.12 519.69Z" id="pa6pSmYWG"></path><path d="M409.76 573.62C409.76 573.62 409.76 573.62 409.76 573.62C420.35 573.62 428.93 582.2 428.93 592.79C428.93 592.79 428.93 592.79 428.93 592.79C428.93 592.83 428.93 593.04 428.93 593.41C425.65 593.41 409.23 593.41 379.68 593.41L379.68 573.62C397.73 573.62 407.75 573.62 409.76 573.62Z" id="i24iAgRN8"></path><path d="M409.76 573.62C409.76 573.62 409.76 573.62 409.76 573.62C420.35 573.62 428.93 582.2 428.93 592.79C428.93 592.79 428.93 592.79 428.93 592.79C428.93 592.83 428.93 593.04 428.93 593.41C425.65 593.41 409.23 593.41 379.68 593.41L379.68 573.62C397.73 573.62 407.75 573.62 409.76 573.62Z" id="bVOoKuQ8F"></path><path d="M374.19 340.29C368.63 339.29 363 338.27 358.05 337.2C358.01 337.2 357.85 337.16 357.56 337.1C357.56 336.8 357.56 336.63 357.56 336.6C357.47 314.01 357.39 291.43 357.26 268.65C345.43 244.81 340.46 218.16 342.9 191.67C342.9 191.65 342.91 191.55 342.93 191.39C343.07 191.29 343.14 191.23 343.16 191.22C347.55 188.17 353.24 187.73 358.04 190.07C362.73 192.63 365.88 197.3 366.51 202.6C371.02 227.14 375.68 252.55 380.88 277.59C380.88 277.59 380.88 277.62 380.89 277.68C380.89 277.73 380.89 277.77 380.89 277.77C378.96 298.19 376.97 319.31 374.92 339.74C374.92 339.83 374.89 340.06 374.86 340.41C374.46 340.34 374.24 340.3 374.19 340.29Z" id="eUaL0bdSh"></path><path d="M374.19 340.29C368.63 339.29 363 338.27 358.05 337.2C358.01 337.2 357.85 337.16 357.56 337.1C357.56 336.8 357.56 336.63 357.56 336.6C357.47 314.01 357.39 291.43 357.26 268.65C345.43 244.81 340.46 218.16 342.9 191.67C342.9 191.65 342.91 191.55 342.93 191.39C343.07 191.29 343.14 191.23 343.16 191.22C347.55 188.17 353.24 187.73 358.04 190.07C362.73 192.63 365.88 197.3 366.51 202.6C371.02 227.14 375.68 252.55 380.88 277.59C380.88 277.59 380.88 277.62 380.89 277.68C380.89 277.73 380.89 277.77 380.89 277.77C378.96 298.19 376.97 319.31 374.92 339.74C374.92 339.83 374.89 340.06 374.86 340.41C374.46 340.34 374.24 340.3 374.19 340.29Z" id="qH1VseTF"></path><path d="M364.78 557.03C357.63 523.23 350.73 495.71 344.06 469.09C336.07 437.19 328.49 406.96 320.85 367.85C321.9 417.17 324.34 452.62 327.14 493.35C328.41 511.75 329.72 530.77 331.04 552.97C331.05 553.02 331.06 553.24 331.08 553.65C330.68 553.64 330.45 553.63 330.41 553.63C306.5 553.02 282.01 551.54 258.32 550.12C258.28 550.11 258.07 550.1 257.69 550.08C257.72 549.7 257.73 549.49 257.74 549.45C262.22 483.35 263.63 440.4 264.65 409.04C266.82 342.87 267.15 332.7 291.8 276.7C292.73 274.57 298.31 268.3 304.43 269.25C307.67 269.76 323.83 272.27 352.93 276.8C352.98 277.06 353.01 277.2 353.01 277.23C354.38 284.12 361.17 305.04 370.57 333.98C390.66 395.87 421.02 489.39 430.51 545.13C430.52 545.17 430.55 545.38 430.62 545.76C430.24 545.82 430.03 545.85 429.98 545.85C416.21 547.81 406.29 549.85 396.7 551.82C387.63 553.69 378.25 555.61 365.48 557.52C365.4 557.53 365.21 557.56 364.9 557.61C364.83 557.26 364.79 557.07 364.78 557.03Z" id="eu58QkdHo"></path><path d="M364.78 557.03C357.63 523.23 350.73 495.71 344.06 469.09C336.07 437.19 328.49 406.96 320.85 367.85C321.9 417.17 324.34 452.62 327.14 493.35C328.41 511.75 329.72 530.77 331.04 552.97C331.05 553.02 331.06 553.24 331.08 553.65C330.68 553.64 330.45 553.63 330.41 553.63C306.5 553.02 282.01 551.54 258.32 550.12C258.28 550.11 258.07 550.1 257.69 550.08C257.72 549.7 257.73 549.49 257.74 549.45C262.22 483.35 263.63 440.4 264.65 409.04C266.82 342.87 267.15 332.7 291.8 276.7C292.73 274.57 298.31 268.3 304.43 269.25C307.67 269.76 323.83 272.27 352.93 276.8C352.98 277.06 353.01 277.2 353.01 277.23C354.38 284.12 361.17 305.04 370.57 333.98C390.66 395.87 421.02 489.39 430.51 545.13C430.52 545.17 430.55 545.38 430.62 545.76C430.24 545.82 430.03 545.85 429.98 545.85C416.21 547.81 406.29 549.85 396.7 551.82C387.63 553.69 378.25 555.61 365.48 557.52C365.4 557.53 365.21 557.56 364.9 557.61C364.83 557.26 364.79 557.07 364.78 557.03Z" id="bScavKvva"></path><path d="M282.74 273.01C282.26 269.95 283.16 266.83 285.2 264.5C276.21 253.62 266.93 242.37 258.04 230.91C258.03 230.89 257.94 230.79 257.8 230.6C257.97 230.27 258.06 230.09 258.08 230.05C263.9 218.94 269.91 207.46 275.68 196.11C276.5 194.09 278.36 192.69 280.52 192.45C282.38 192.1 284.31 192.53 285.84 193.64C285.84 193.61 285.85 193.39 285.85 193.36C286.09 187.62 286.34 181.87 286.58 176.42C286.59 176.39 286.59 176.19 286.61 175.84C286.96 175.83 287.15 175.83 287.19 175.83C298.29 175.59 309.77 175.33 321.05 174.66C321.08 174.66 321.22 174.65 321.48 174.64C324.83 182.12 326.7 186.28 327.07 187.11C336.15 186.23 345.29 188.09 353.31 192.44C353.34 192.45 353.46 192.52 353.68 192.64C353.66 192.89 353.64 193.02 353.64 193.05C351.39 214.49 351.88 236.13 355.1 257.45C354.92 267.18 354.73 277.13 352.76 285.06C352.75 285.07 352.74 285.15 352.7 285.29C352.58 285.37 352.52 285.41 352.5 285.42C343.69 291.27 333.33 294.36 322.75 294.29C309.81 294.29 297.02 289.8 287.85 281.06C284.94 279.37 283.03 276.37 282.74 273.01Z" id="eY9M3u3nB"></path><path d="M282.74 273.01C282.26 269.95 283.16 266.83 285.2 264.5C276.21 253.62 266.93 242.37 258.04 230.91C258.03 230.89 257.94 230.79 257.8 230.6C257.97 230.27 258.06 230.09 258.08 230.05C263.9 218.94 269.91 207.46 275.68 196.11C276.5 194.09 278.36 192.69 280.52 192.45C282.38 192.1 284.31 192.53 285.84 193.64C285.84 193.61 285.85 193.39 285.85 193.36C286.09 187.62 286.34 181.87 286.58 176.42C286.59 176.39 286.59 176.19 286.61 175.84C286.96 175.83 287.15 175.83 287.19 175.83C298.29 175.59 309.77 175.33 321.05 174.66C321.08 174.66 321.22 174.65 321.48 174.64C324.83 182.12 326.7 186.28 327.07 187.11C336.15 186.23 345.29 188.09 353.31 192.44C353.34 192.45 353.46 192.52 353.68 192.64C353.66 192.89 353.64 193.02 353.64 193.05C351.39 214.49 351.88 236.13 355.1 257.45C354.92 267.18 354.73 277.13 352.76 285.06C352.75 285.07 352.74 285.15 352.7 285.29C352.58 285.37 352.52 285.41 352.5 285.42C343.69 291.27 333.33 294.36 322.75 294.29C309.81 294.29 297.02 289.8 287.85 281.06C284.94 279.37 283.03 276.37 282.74 273.01Z" id="c1eKPJ4gt3"></path><path d="M274.37 239.83C265.67 235.47 256.94 230.63 248.51 225.95C248.39 225.92 247.46 225.74 247.34 225.72C225.13 221.26 212.89 218.8 192.85 207.05C192.84 207.05 192.79 207.02 192.7 206.96C192.65 206.87 192.62 206.81 192.62 206.8C182.58 187.63 179.78 170.88 182.29 144.98C182.29 144.94 182.31 144.77 182.34 144.46C182.65 144.43 182.82 144.42 182.86 144.42C185.03 144.24 188.57 144.12 191.99 144.01C195.33 143.9 198.77 143.78 200.88 143.62C200.92 143.61 201.08 143.6 201.37 143.58C201.46 143.86 201.51 144.01 201.52 144.04C204.15 152.15 206.38 159.72 208.74 167.73C211.17 175.96 213.68 184.47 216.74 193.93C227.93 197.14 257.93 196.18 267.25 194.91C272.64 194.36 278.07 196.85 281.83 201.54C281.84 201.55 281.9 201.62 282 201.75C281.97 201.92 281.96 202.01 281.95 202.03C279.9 214.56 277.54 227.17 275.26 239.36C275.24 239.47 275.19 239.74 275.11 240.17C274.66 239.97 274.42 239.85 274.37 239.83Z" id="a4jQN34XcQ"></path><path d="M274.37 239.83C265.67 235.47 256.94 230.63 248.51 225.95C248.39 225.92 247.46 225.74 247.34 225.72C225.13 221.26 212.89 218.8 192.85 207.05C192.84 207.05 192.79 207.02 192.7 206.96C192.65 206.87 192.62 206.81 192.62 206.8C182.58 187.63 179.78 170.88 182.29 144.98C182.29 144.94 182.31 144.77 182.34 144.46C182.65 144.43 182.82 144.42 182.86 144.42C185.03 144.24 188.57 144.12 191.99 144.01C195.33 143.9 198.77 143.78 200.88 143.62C200.92 143.61 201.08 143.6 201.37 143.58C201.46 143.86 201.51 144.01 201.52 144.04C204.15 152.15 206.38 159.72 208.74 167.73C211.17 175.96 213.68 184.47 216.74 193.93C227.93 197.14 257.93 196.18 267.25 194.91C272.64 194.36 278.07 196.85 281.83 201.54C281.84 201.55 281.9 201.62 282 201.75C281.97 201.92 281.96 202.01 281.95 202.03C279.9 214.56 277.54 227.17 275.26 239.36C275.24 239.47 275.19 239.74 275.11 240.17C274.66 239.97 274.42 239.85 274.37 239.83Z" id="baRxUHoXkc"></path><path d="M288.26 167.37C303.09 175.47 321.68 170.02 329.79 155.19C337.9 140.36 332.45 121.77 317.62 113.66C302.79 105.56 284.2 111.01 276.09 125.84C267.98 140.67 273.43 159.26 288.26 167.37Z" id="a2jwgv6lAr"></path><path d="M288.26 167.37C303.09 175.47 321.68 170.02 329.79 155.19C337.9 140.36 332.45 121.77 317.62 113.66C302.79 105.56 284.2 111.01 276.09 125.84C267.98 140.67 273.43 159.26 288.26 167.37Z" id="a8aJAtnc"></path><path d="M280.09 138.69L285.43 123.74L286.5 138.69L292.29 138.69L295.4 129.97L296.02 138.69C321.81 138.69 336.14 138.69 339.01 138.69C339.01 138.69 339.01 138.69 339.01 138.69C339.01 120.8 324.5 106.3 306.61 106.3C305.99 106.3 301.01 106.3 300.38 106.3C282.49 106.3 267.99 120.8 267.99 138.69C267.99 138.69 267.99 138.69 267.99 138.69C269.6 138.69 273.64 138.69 280.09 138.69Z" id="acC4tdHcO"></path><path d="M280.09 138.69L285.43 123.74L286.5 138.69L292.29 138.69L295.4 129.97L296.02 138.69C321.81 138.69 336.14 138.69 339.01 138.69C339.01 138.69 339.01 138.69 339.01 138.69C339.01 120.8 324.5 106.3 306.61 106.3C305.99 106.3 301.01 106.3 300.38 106.3C282.49 106.3 267.99 120.8 267.99 138.69C267.99 138.69 267.99 138.69 267.99 138.69C269.6 138.69 273.64 138.69 280.09 138.69Z" id="e1cm6nP6r7"></path></defs><g><g><g><use xlink:href="#b1IVPRfoZz" opacity="1" fill="#2f2e41" fill-opacity="1"></use><g><use xlink:href="#b1IVPRfoZz" opacity="1" fill-opacity="0" stroke="#000000" stroke-width="1" stroke-opacity="0"></use></g></g><g><use xlink:href="#c5UsPhagBx" opacity="1" fill="#000000" fill-opacity="0"></use><g><use xlink:href="#c5UsPhagBx" opacity="1" fill-opacity="0" stroke="#000000" stroke-width="1" stroke-opacity="0"></use></g></g><g><use xlink:href="#a4kYu7NbO3" opacity="1" fill="#ffb8b8" fill-opacity="1"></use><g><use xlink:href="#a4kYu7NbO3" opacity="1" fill-opacity="0" stroke="#000000" stroke-width="1" stroke-opacity="0"></use></g></g><g><use xlink:href="#c3LABbGd09" opacity="1" fill="#000000" fill-opacity="0"></use><g><use xlink:href="#c3LABbGd09" opacity="1" fill-opacity="0" stroke="#000000" stroke-width="1" stroke-opacity="0"></use></g></g><g><use xlink:href="#d8vjj6Xnn" opacity="1" fill="#ffb8b8" fill-opacity="1"></use><g><use xlink:href="#d8vjj6Xnn" opacity="1" fill-opacity="0" stroke="#000000" stroke-width="1" stroke-opacity="0"></use></g></g><g><use xlink:href="#b1o0zUf8o9" opacity="1" fill="#000000" fill-opacity="0"></use><g><use xlink:href="#b1o0zUf8o9" opacity="1" fill-opacity="0" stroke="#000000" stroke-width="1" stroke-opacity="0"></use></g></g><g><use xlink:href="#a2tXmAEPPl" opacity="1" fill="#ffb8b8" fill-opacity="1"></use><g><use xlink:href="#a2tXmAEPPl" opacity="1" fill-opacity="0" stroke="#000000" stroke-width="1" stroke-opacity="0"></use></g></g><g><use xlink:href="#b1mGt6tAo" opacity="1" fill="#000000" fill-opacity="0"></use><g><use xlink:href="#b1mGt6tAo" opacity="1" fill-opacity="0" stroke="#000000" stroke-width="1" stroke-opacity="0"></use></g></g><g><use xlink:href="#c5ASP1gPCQ" opacity="1" fill="#2f2e41" fill-opacity="1"></use><g><use xlink:href="#c5ASP1gPCQ" opacity="1" fill-opacity="0" stroke="#000000" stroke-width="1" stroke-opacity="0"></use></g></g><g><use xlink:href="#b1ncSamuCf" opacity="1" fill="#000000" fill-opacity="0"></use><g><use xlink:href="#b1ncSamuCf" opacity="1" fill-opacity="0" stroke="#000000" stroke-width="1" stroke-opacity="0"></use></g></g><g><use xlink:href="#b1dXuzJlQz" opacity="1" fill="#ffb8b8" fill-opacity="1"></use><g><use xlink:href="#b1dXuzJlQz" opacity="1" fill-opacity="0" stroke="#000000" stroke-width="1" stroke-opacity="0"></use></g></g><g><use xlink:href="#pa6pSmYWG" opacity="1" fill="#000000" fill-opacity="0"></use><g><use xlink:href="#pa6pSmYWG" opacity="1" fill-opacity="0" stroke="#000000" stroke-width="1" stroke-opacity="0"></use></g></g><g><use xlink:href="#i24iAgRN8" opacity="1" fill="#2f2e41" fill-opacity="1"></use><g><use xlink:href="#i24iAgRN8" opacity="1" fill-opacity="0" stroke="#000000" stroke-width="1" stroke-opacity="0"></use></g></g><g><use xlink:href="#bVOoKuQ8F" opacity="1" fill="#000000" fill-opacity="0"></use><g><use xlink:href="#bVOoKuQ8F" opacity="1" fill-opacity="0" stroke="#000000" stroke-width="1" stroke-opacity="0"></use></g></g><g><use xlink:href="#eUaL0bdSh" opacity="1" fill="#43c59e" fill-opacity="1"></use><g><use xlink:href="#eUaL0bdSh" opacity="1" fill-opacity="0" stroke="#000000" stroke-width="1" stroke-opacity="0"></use></g></g><g><use xlink:href="#qH1VseTF" opacity="1" fill="#000000" fill-opacity="0"></use><g><use xlink:href="#qH1VseTF" opacity="1" fill-opacity="0" stroke="#000000" stroke-width="1" stroke-opacity="0"></use></g></g><g><use xlink:href="#eu58QkdHo" opacity="1" fill="#2f2e41" fill-opacity="1"></use><g><use xlink:href="#eu58QkdHo" opacity="1" fill-opacity="0" stroke="#000000" stroke-width="1" stroke-opacity="0"></use></g></g><g><use xlink:href="#bScavKvva" opacity="1" fill="#000000" fill-opacity="0"></use><g><use xlink:href="#bScavKvva" opacity="1" fill-opacity="0" stroke="#000000" stroke-width="1" stroke-opacity="0"></use></g></g><g><use xlink:href="#eY9M3u3nB" opacity="1" fill="#43c59e" fill-opacity="1"></use><g><use xlink:href="#eY9M3u3nB" opacity="1" fill-opacity="0" stroke="#000000" stroke-width="1" stroke-opacity="0"></use></g></g><g><use xlink:href="#c1eKPJ4gt3" opacity="1" fill="#000000" fill-opacity="0"></use><g><use xlink:href="#c1eKPJ4gt3" opacity="1" fill-opacity="0" stroke="#000000" stroke-width="1" stroke-opacity="0"></use></g></g><g><use xlink:href="#a4jQN34XcQ" opacity="1" fill="#43c59e" fill-opacity="1"></use><g><use xlink:href="#a4jQN34XcQ" opacity="1" fill-opacity="0" stroke="#000000" stroke-width="1" stroke-opacity="0"></use></g></g><g><use xlink:href="#baRxUHoXkc" opacity="1" fill="#000000" fill-opacity="0"></use><g><use xlink:href="#baRxUHoXkc" opacity="1" fill-opacity="0" stroke="#000000" stroke-width="1" stroke-opacity="0"></use></g></g><g><use xlink:href="#a2jwgv6lAr" opacity="1" fill="#ffb8b8" fill-opacity="1"></use><g><use xlink:href="#a2jwgv6lAr" opacity="1" fill-opacity="0" stroke="#000000" stroke-width="1" stroke-opacity="0"></use></g></g><g><use xlink:href="#a8aJAtnc" opacity="1" fill="#000000" fill-opacity="0"></use><g><use xlink:href="#a8aJAtnc" opacity="1" fill-opacity="0" stroke="#000000" stroke-width="1" stroke-opacity="0"></use></g></g><g><use xlink:href="#acC4tdHcO" opacity="1" fill="#2f2e41" fill-opacity="1"></use><g><use xlink:href="#acC4tdHcO" opacity="1" fill-opacity="0" stroke="#000000" stroke-width="1" stroke-opacity="0"></use></g></g><g><use xlink:href="#e1cm6nP6r7" opacity="1" fill="#000000" fill-opacity="0"></use><g><use xlink:href="#e1cm6nP6r7" opacity="1" fill-opacity="0" stroke="#000000" stroke-width="1" stroke-opacity="0"></use></g></g></g></g></svg>